<svg width="40" height="40" viewBox="0 0 40 40" fill="none" xmlns="http://www.w3.org/2000/svg">
<rect width="40" height="40" rx="8" fill="#0047BB"/>
<path opacity="0.3" d="M22.2929 24.7071C21.9024 24.3166 21.9024 23.6834 22.2929 23.2929C22.6834 22.9024 23.3166 22.9024 23.7071 23.2929L27.7071 27.2929C28.0976 27.6834 28.0976 28.3166 27.7071 28.7071C27.3166 29.0976 26.6834 29.0976 26.2929 28.7071L22.2929 24.7071Z" fill="white"/>
<path fill-rule="evenodd" clip-rule="evenodd" d="M12 19C12 22.866 15.134 26 19 26C22.866 26 26 22.866 26 19C26 15.134 22.866 12 19 12C15.134 12 12 15.134 12 19ZM24 19C24 21.7614 21.7614 24 19 24C16.2386 24 14 21.7614 14 19C14 16.2386 16.2386 14 19 14C21.7614 14 24 16.2386 24 19Z" fill="white"/>
</svg>
