<svg width="15" height="16" viewBox="0 0 15 16" fill="none" xmlns="http://www.w3.org/2000/svg">
<path fill-rule="evenodd" clip-rule="evenodd" d="M5.83744 0.722344C5.64578 0.433826 5.13932 -0.142663 4.26927 0.0324967C3.71843 0.143393 3.42719 0.478545 3.28662 0.80651C3.15296 1.11837 3.15732 1.4149 3.16082 1.49269L3.17665 1.68363C3.21291 2.12056 3.29404 3.09796 3.54732 4.47265C3.64845 5.02151 3.77437 5.56684 3.89375 6.08382C3.94658 6.31261 3.99813 6.53585 4.04568 6.75139C4.13264 7.14558 4.20651 7.51501 4.25525 7.85699L3.37372 6.98268C3.11999 6.73104 2.81408 6.47386 2.47215 6.30572C2.12676 6.13587 1.72753 6.04921 1.30838 6.17107C1.10064 6.23147 0.886955 6.33703 0.705362 6.51543C0.444782 6.77141 0.326268 7.09367 0.274918 7.37572C0.158471 8.01535 0.471629 8.59803 0.76898 9.03647C1.37117 9.92438 2.43907 11.5036 3.03006 12.4045C3.6729 13.3845 4.47045 14.0142 4.87063 14.2928C4.94521 14.3447 4.98399 14.4225 4.98399 14.4933V15.4511C4.98399 15.7543 5.22814 16 5.5293 16H8.99946C9.1473 16 9.27272 15.8906 9.29386 15.7433L9.29415 15.7414L9.29571 15.7314C9.29718 15.7222 9.29954 15.7079 9.30286 15.6895C9.3095 15.6524 9.31992 15.5985 9.33471 15.5335C9.36454 15.4024 9.41094 15.2312 9.47755 15.063C9.54538 14.8918 9.62721 14.7416 9.71996 14.6388C9.8095 14.5395 9.89057 14.503 9.97101 14.503C10.0525 14.503 10.137 14.5405 10.2312 14.642C10.328 14.7463 10.4144 14.8977 10.487 15.0693C10.5583 15.238 10.6093 15.4096 10.6427 15.5409C10.6592 15.606 10.6711 15.6599 10.6788 15.697C10.6826 15.7156 10.6853 15.7298 10.687 15.7391L10.6889 15.7491L10.6892 15.7512C10.7137 15.8949 10.8375 16 10.9824 16H12.4696C12.7708 16 13.0149 15.7543 13.0149 15.4511V13.6177C13.0149 13.402 13.0728 13.1902 13.1825 13.0049L14.0233 11.5842C14.3681 11.0015 14.5709 10.3448 14.6148 9.66792L14.7078 8.23534L14.7083 8.22621L14.7498 7.02216C14.7501 7.01446 14.7501 7.00675 14.7497 6.99905L14.718 6.24856C14.7111 6.08421 14.6921 5.87603 14.5974 5.67817C14.4623 5.39594 14.1292 4.91798 13.4543 4.91798C13.1034 4.91798 12.8341 5.01749 12.6348 5.15213C12.5779 5.19055 12.5277 5.23336 12.4833 5.27926C12.4465 5.10202 12.3804 4.91318 12.2515 4.74746C12.0352 4.46942 11.6244 4.11866 10.9563 4.11866C10.3983 4.11866 9.99963 4.36429 9.74708 4.60301L9.73555 4.61407C9.54584 4.04048 8.91134 3.67503 8.25585 3.67503C7.63181 3.67503 7.02677 4.00627 6.80648 4.53299L6.01636 1.16715C5.98474 1.03244 5.93625 0.87108 5.83744 0.722344ZM8.75453 15.4012L8.75483 15.3999C8.78885 15.2503 8.84335 15.0473 8.92497 14.8413C9.00537 14.6383 9.1191 14.4142 9.27951 14.2363C9.44313 14.0549 9.67282 13.9043 9.97101 13.9043C10.2682 13.9043 10.4994 14.0539 10.6658 14.2331C10.8296 14.4095 10.9487 14.6323 11.0344 14.8349C11.1213 15.0405 11.1811 15.2431 11.219 15.3925L11.2212 15.4012H12.42V13.6177C12.42 13.2941 12.5069 12.9765 12.6714 12.6984L13.5122 11.2778C13.8089 10.7764 13.9834 10.2113 14.0212 9.62887L14.1139 8.20086L14.1549 7.01292L14.1237 6.27398C14.1175 6.12686 14.1012 6.02108 14.0615 5.93808C13.967 5.74066 13.7913 5.51676 13.4543 5.51676C13.2215 5.51676 13.0676 5.58092 12.9663 5.6493C12.8936 5.69841 12.8376 5.77608 12.7936 5.89556C12.7482 6.01879 12.723 6.16543 12.7008 6.33268L12.6428 6.76934C12.6229 6.91957 12.4946 7.0311 12.344 7.02905C12.1934 7.027 12.0681 6.91201 12.0522 6.76129L11.9278 5.58145C11.9059 5.37344 11.8654 5.22231 11.7831 5.11662C11.6423 4.93561 11.3886 4.71745 10.9563 4.71745C10.5868 4.71745 10.3271 4.87621 10.1543 5.03949C9.99945 5.18589 9.93025 5.42584 9.91239 5.73805L9.85467 6.7469C9.84554 6.90655 9.71336 7.0308 9.55449 7.02906C9.39563 7.02732 9.26616 6.90022 9.26047 6.7404L9.19794 4.98312L9.19779 4.97712L9.19775 4.9724C9.19775 4.64547 8.84142 4.27382 8.25585 4.27382C7.67029 4.27382 7.31395 4.64547 7.31395 4.9724V6.72969C7.31395 6.88163 7.20088 7.00948 7.05094 7.02707C6.901 7.04465 6.76175 6.9464 6.72704 6.79853L5.43742 1.30484C5.4116 1.19486 5.38296 1.11545 5.34292 1.05518C5.1969 0.835354 4.89576 0.517014 4.38594 0.619652C4.05396 0.686488 3.90772 0.869006 3.83284 1.0437C3.75107 1.2345 3.7533 1.42563 3.7551 1.46555L3.75614 1.47804C3.75993 1.519 3.7642 1.57048 3.76933 1.63214C3.80569 2.06965 3.88466 3.01979 4.13223 4.36346C4.23087 4.89883 4.3516 5.42156 4.46955 5.93222C4.48463 5.99752 4.4997 6.06274 4.51464 6.12766C4.55282 6.29358 4.59037 6.45821 4.62642 6.62159C4.78424 7.33697 4.91273 8.02678 4.91273 8.63439C4.91273 8.75508 4.84073 8.86397 4.73012 8.91057C4.61952 8.95716 4.49193 8.93236 4.40652 8.84765L2.95619 7.4092C2.72318 7.17811 2.47031 6.97123 2.21102 6.84373C1.9552 6.71793 1.71078 6.67734 1.47345 6.74634C1.33816 6.78568 1.21767 6.84885 1.12086 6.94395C0.976911 7.08536 0.897651 7.27716 0.860059 7.48365C0.789627 7.87052 0.973103 8.2754 1.2603 8.69887C1.86191 9.58594 2.93251 11.1691 3.5265 12.0746C4.11244 12.9678 4.84416 13.5463 5.20901 13.8003C5.42715 13.9522 5.57888 14.2059 5.57888 14.4933V15.4012H8.75453Z" fill="#14171A"/>
</svg>
