<svg width="158" height="28" viewBox="0 0 158 28" fill="none" xmlns="http://www.w3.org/2000/svg">
<path fill-rule="evenodd" clip-rule="evenodd" d="M8.25 11.75H5.5C4.395 11.75 3.5 10.855 3.5 9.75V7C3.5 5.895 4.395 5 5.5 5H8.25C9.355 5 10.25 5.895 10.25 7V9.75C10.25 10.855 9.355 11.75 8.25 11.75Z" stroke="#0047BB" stroke-width="1.5" stroke-linecap="round" stroke-linejoin="round"/>
<path opacity="0.6" fill-rule="evenodd" clip-rule="evenodd" d="M19.5 11.75H16.75C15.645 11.75 14.75 10.855 14.75 9.75V7C14.75 5.895 15.645 5 16.75 5H19.5C20.605 5 21.5 5.895 21.5 7V9.75C21.5 10.855 20.605 11.75 19.5 11.75Z" stroke="#0047BB" stroke-width="1.5" stroke-linecap="round" stroke-linejoin="round"/>
<path opacity="0.6" fill-rule="evenodd" clip-rule="evenodd" d="M8.25 23H5.5C4.395 23 3.5 22.105 3.5 21V18.25C3.5 17.145 4.395 16.25 5.5 16.25H8.25C9.355 16.25 10.25 17.145 10.25 18.25V21C10.25 22.105 9.355 23 8.25 23Z" stroke="#0047BB" stroke-width="1.5" stroke-linecap="round" stroke-linejoin="round"/>
<path opacity="0.6" fill-rule="evenodd" clip-rule="evenodd" d="M19.5 23H16.75C15.645 23 14.75 22.105 14.75 21V18.25C14.75 17.145 15.645 16.25 16.75 16.25H19.5C20.605 16.25 21.5 17.145 21.5 18.25V21C21.5 22.105 20.605 23 19.5 23Z" stroke="#0047BB" stroke-width="1.5" stroke-linecap="round" stroke-linejoin="round"/>
<path d="M38.236 18.976V7.864H39.772C43.396 7.864 44.908 9.76 44.908 13.288V13.48C44.908 17.032 43.276 18.976 39.82 18.976H38.236ZM34.348 22H39.94C45.964 22 48.964 18.568 48.964 13.432V13.24C48.964 8.104 45.988 4.84 39.964 4.84H34.348V22ZM54.6541 22.264C56.6221 22.264 57.7261 21.496 58.4461 20.488V22H61.8301V13.816C61.8301 10.408 59.6461 9.16 56.5741 9.16C53.5021 9.16 51.1501 10.48 50.9341 13.456H54.2221C54.3661 12.376 54.9901 11.68 56.3581 11.68C57.9421 11.68 58.3981 12.496 58.3981 13.984V14.488H56.9821C53.1421 14.488 50.4541 15.592 50.4541 18.52C50.4541 21.16 52.3741 22.264 54.6541 22.264ZM55.6861 19.84C54.4141 19.84 53.8621 19.24 53.8621 18.328C53.8621 16.984 55.0381 16.552 57.0541 16.552H58.3981V17.608C58.3981 19 57.2221 19.84 55.6861 19.84ZM69.1969 22.264C72.5089 22.264 74.4769 20.848 74.4769 18.136C74.4769 15.448 72.7489 14.656 69.6049 14.2C67.7809 13.936 67.1809 13.624 67.1809 12.832C67.1809 12.064 67.8289 11.536 68.9569 11.536C70.1569 11.536 70.7329 12.016 70.9249 13.048H74.1169C73.8049 10.168 71.7169 9.16 68.9329 9.16C66.3649 9.16 63.9649 10.456 63.9649 13.072C63.9649 15.52 65.2609 16.48 68.5969 16.984C70.3969 17.248 71.1409 17.608 71.1409 18.472C71.1409 19.336 70.5169 19.84 69.1729 19.84C67.6609 19.84 67.1089 19.192 66.9649 18.064H63.7249C63.8449 20.776 65.8129 22.264 69.1969 22.264ZM76.5038 22H79.9838V14.752C79.9838 12.904 81.1118 11.992 82.5998 11.992C84.1358 11.992 84.8078 12.808 84.8078 14.512V22H88.2878V14.008C88.2878 10.648 86.5358 9.16 84.0638 9.16C81.9758 9.16 80.6078 10.192 79.9838 11.44V3.76H76.5038V22ZM98.5774 22.264C101.697 22.264 104.049 19.936 104.049 15.784V15.592C104.049 11.44 101.649 9.16 98.5774 9.16C96.7294 9.16 95.2654 10.216 94.5694 11.416V3.76H91.0894V22H94.5694V20.008C95.2174 21.304 96.6334 22.264 98.5774 22.264ZM97.5454 19.552C95.6494 19.552 94.4494 18.328 94.4494 15.808V15.616C94.4494 13.096 95.6974 11.824 97.5214 11.824C99.2734 11.824 100.521 13.072 100.521 15.616V15.808C100.521 18.256 99.4654 19.552 97.5454 19.552ZM112.047 19.624C110.079 19.624 108.975 18.184 108.975 15.784V15.592C108.975 13.192 110.127 11.8 112.047 11.8C113.991 11.8 115.119 13.24 115.119 15.64V15.808C115.119 18.184 113.991 19.624 112.047 19.624ZM112.023 22.264C115.791 22.264 118.647 19.744 118.647 15.784V15.592C118.647 11.68 115.815 9.16 112.047 9.16C108.279 9.16 105.423 11.728 105.423 15.664V15.856C105.423 19.768 108.279 22.264 112.023 22.264ZM124.184 22.264C126.152 22.264 127.256 21.496 127.976 20.488V22H131.36V13.816C131.36 10.408 129.176 9.16 126.104 9.16C123.032 9.16 120.68 10.48 120.464 13.456H123.752C123.896 12.376 124.52 11.68 125.888 11.68C127.472 11.68 127.928 12.496 127.928 13.984V14.488H126.512C122.672 14.488 119.984 15.592 119.984 18.52C119.984 21.16 121.904 22.264 124.184 22.264ZM125.216 19.84C123.944 19.84 123.392 19.24 123.392 18.328C123.392 16.984 124.568 16.552 126.584 16.552H127.928V17.608C127.928 19 126.752 19.84 125.216 19.84ZM134.167 22H137.647V15.712C137.647 13.312 139.135 12.472 141.703 12.496V9.256C139.663 9.28 138.439 10.168 137.647 11.848V9.448H134.167V22ZM148.277 22.264C150.125 22.264 151.661 21.184 152.309 19.912V22H155.765V3.76H152.309V11.32C151.613 10.048 150.365 9.16 148.349 9.16C145.205 9.16 142.829 11.584 142.829 15.712V15.904C142.829 20.08 145.229 22.264 148.277 22.264ZM149.309 19.552C147.581 19.552 146.381 18.328 146.381 15.832V15.64C146.381 13.144 147.461 11.824 149.405 11.824C151.301 11.824 152.405 13.096 152.405 15.592V15.784C152.405 18.328 151.133 19.552 149.309 19.552Z" fill="#14171A"/>
</svg>
